<svg viewBox="0 0 245 33.24">
			
				<symbol id="fabletics-logo-bug">
					<path class="fabletics-logo-content fabletics-logo-bug" fill="#333333" d="M25.8,20.7c-4.5,1.9-12.7,1.6-14.3,1.9c-1.5,0.3-5.3-0.1-8,5.4C4.1,27.3,5,26.8,6,26.8c1.8,0,3.2,1.4,3.2,3.2c0,1.7-1.4,3.2-3.2,3.2c-1.3,0-2.4-0.8-2.9-1.9c0,0,0,0,0,0C3,31.2,3,31,2.9,30.9c0,0,0-0.1,0-0.1c0-0.1,0-0.2-0.1-0.3c0-0.1,0-0.3,0-0.4c0,0,0,0,0,0c0,0,0,0,0,0c0-0.1,0-0.2,0-0.3c0-0.4,0.1-0.8,0.1-1.2l0,0c0,0,0-0.1,0-0.1c0.4-2.4,1.2-4.9,1.2-4.9l0,0c0.4-1.4,0.7-2,0.7-2.1c0,0,0,0,0,0c0.9-2.1,2.4-4.4,4.7-5.2c0,0,1.9-0.8,6.6-0.7c0,0,0,0,0,0c0,0,0,0,0,0c0.3,0,0.7,0,1,0	c4.7,0.1,7.9-0.3,7.9-0.3c3.7-0.3,5.9-1,7.8-2.2C32.5,14.4,31,18.5,25.8,20.7z M37.2,4.4c-0.3,1-0.9,2.3-2,3.4c0,0-1.4,1.9-4.7,3.2c0,0-2.1,0.9-5.8,1.2c0,0-3.1,0.3-7.9,0.3c-0.3,0-1,0-1,0c0,0,0,0,0,0c-4.7,0-6.6,0.7-6.6,0.7c-2.3,0.8-3.8,3.1-4.7,5.2c0,0,0,0,0,0c0,0.1-1.1,2.7-2.1,7.4c0,0,0,0,0,0V15.1c0-0.5,0-1.1,0.1-1.6c0.4-3.4,2.4-6.3,5.3-7.8c0.6-0.4,3.4-1.5,7.8-1.6c1.3,0,8.8-0.1,12.1-0.2c7.7-0.3,9.9-1.3,9.9-1.3C37.4,3.8,37.2,4.4,37.2,4.4z"></path>
				</symbol>
			

			<symbol id="fabletics-logo-type">
				<path class="fabletics-logo-content fabletics-logo-type fabletics-logo-type--f" fill="#333333" d="M64.76,16.81v-4.1h-0.21c0.12-0.01,0.19-0.01,0.19-0.01H61h-4.86h-3.27c-2.04,0-3.69,1.63-3.74,3.65l0,0v0.03c0,0.02,0,0.04,0,0.06v7.35c0,0.04,0,0.06,0,0.08v9.37h4.52v-7.94h9.78v-4.1h-9.78v-4.38H64.76z"></path>
				<path class="fabletics-logo-content fabletics-logo-type fabletics-logo-type--a" fill="#333333" d="M81.3,17.99l2.73,6.66h-5.46L81.3,17.99z M79.21,12.7l-8.74,20.53h4.61l1.88-4.59h8.68l1.88,4.59h4.73L83.5,12.7H79.21z"></path>
				<path class="fabletics-logo-content fabletics-logo-type fabletics-logo-type--b" fill="#333333" d="M112.87,22.51c1.47-0.82,2.7-2.12,2.7-4.42v-0.06c0-3.2-2.55-5.28-6.68-5.31l-0.01,0h-0.08h-2.52h-3.26h-0.01c-2.07,0-3.74,1.67-3.74,3.74v0.1c0,0,0,0,0,0v16.68h9.76c4.64,0,7.68-1.87,7.68-5.62v-0.07C116.71,24.8,115.24,23.41,112.87,22.51z M103.67,16.68h4.46c1.91,0,2.96,0.76,2.96,2.11v0.06c0,1.52-1.26,2.16-3.26,2.16h-4.16V16.68z M112.22,27.06c0,1.52-1.2,2.23-3.2,2.23h-5.36v-4.52h5.22c2.31,0,3.33,0.84,3.33,2.22V27.06z"></path>
				<path class="fabletics-logo-content fabletics-logo-type fabletics-logo-type--l" fill="#333333" d="M128.27,29.14V16.88v-4.16l0,0l0-0.01h-0.78c-2.07,0-3.74,1.67-3.74,3.74v0.39c0,0,0,0,0,0.01v0.04v16.36h14.73v-4.09H128.27z"></path>
				<path class="fabletics-logo-content fabletics-logo-type fabletics-logo-type--e" fill="#333333" d="M149.99,29.22V24.9h9.68v-4.01h-9.68v-4.17h11v-4.02h-3.63l0.01-0.01h-4.86h-3.27c-2.07,0-3.74,1.67-3.74,3.74v0.3c0,0,0,0,0,0v16.48h15.62v-4.01H149.99z"></path>
				<path class="fabletics-logo-content fabletics-logo-type fabletics-logo-type--t" fill="#333333" d="M183.78,12.71h-3.74h-4.86h-3.27c-2.07,0-3.74,1.67-3.74,3.74h0v0.43h6.24v16.36h4.52V16.87h6.24v-4.16L183.78,12.71L183.78,12.71z"></path>
				<path class="fabletics-logo-content fabletics-logo-type fabletics-logo-type--i" fill="#333333" d="M195.9,12.71c-2.07,0-3.74,1.67-3.74,3.74v7.35c0,0.03,0,0.05,0,0.08v9.35h4.52V16.87v-4.16L195.9,12.71z"></path>
				<path class="fabletics-logo-content fabletics-logo-type fabletics-logo-type--c" fill="#333333" d="M214.12,29.21c-3.39,0-5.76-2.84-5.76-6.24v-0.06c0-3.4,2.41-6.18,5.76-6.18c1.99,0,3.54,0.86,5.08,2.25l2.77-3.2c-1.84-1.82-4.08-3.07-7.82-3.07c-6.09,0-10.34,4.62-10.34,10.27v0.06c0,5.7,4.34,10.2,10.17,10.2c3.83,0,6.09-1.37,8.13-3.54l-2.76-2.8C217.77,28.3,216.38,29.21,214.12,29.21z"></path>
				<path class="fabletics-logo-content fabletics-logo-type fabletics-logo-type--s" fill="#333333" d="M238.68,21.01c-3.46-0.89-4.3-1.32-4.3-2.63v-0.05c0-0.97,0.88-1.74,2.57-1.74c1.68,0,3.41,0.74,5.18,1.96l2.28-3.3c-2.01-1.63-4.49-2.54-7.41-2.54c-4.07,0-6.97,2.4-6.97,6.02v0.05c0,3.96,2.6,5.07,6.61,6.1c3.34,0.85,4.03,1.42,4.03,2.53v0.07c0,1.17-1.09,1.87-2.89,1.87c-2.27,0-4.16-0.93-5.95-2.41l-2.6,3.1c2.39,2.14,5.44,3.19,8.46,3.19c4.3,0,7.32-2.22,7.32-6.18v-0.06C245,23.51,242.72,22.07,238.68,21.01z"></path>
			</symbol>

			<symbol id="fabletics-logo">
				<use xlink:href="#fabletics-logo-bug"></use>
				<use xlink:href="#fabletics-logo-type"></use>
			</symbol>

			<use xlink:href="#fabletics-logo"></use>
		</svg>